<?xml version="1.0" standalone="no"?>
<!DOCTYPE svg PUBLIC "-//W3C//DTD SVG 20010904//EN"
 "http://www.w3.org/TR/2001/REC-SVG-20010904/DTD/svg10.dtd">
<svg version="1.0" xmlns="http://www.w3.org/2000/svg"
 width="214.000000pt" height="214.000000pt" viewBox="0 0 214.000000 214.000000"
 preserveAspectRatio="xMidYMid meet">
<metadata>
Created by potrace 1.11, written by Peter Selinger 2001-2013
</metadata>
<g transform="translate(0.000000,214.000000) scale(0.100000,-0.100000)"
fill="#000000" stroke="none">
<path d="M0 1070 l0 -1070 1070 0 1070 0 0 1070 0 1070 -1070 0 -1070 0 0
-1070z m1298 705 c125 -30 126 -30 161 -4 18 13 36 19 48 15 18 -6 21 -19 26
-119 4 -61 7 -158 7 -214 l0 -103 -37 0 c-37 1 -40 4 -93 91 -77 128 -184 240
-265 280 -59 29 -71 31 -134 27 -123 -9 -205 -79 -218 -186 -11 -97 47 -168
179 -220 29 -11 116 -39 193 -62 192 -55 288 -104 358 -180 75 -81 99 -144
105 -279 8 -176 -29 -284 -132 -387 -70 -69 -157 -116 -254 -135 -91 -17 -319
-6 -465 24 l-119 24 -21 -28 c-16 -23 -29 -29 -57 -29 l-37 0 -9 248 c-7 172
-7 249 0 254 25 18 66 8 82 -19 124 -206 238 -329 358 -388 68 -34 87 -39 145
-39 102 1 195 54 227 130 19 46 17 131 -5 179 -35 78 -124 129 -331 190 -230
69 -362 146 -420 248 -74 130 -79 332 -11 466 28 53 115 147 165 176 51 30
115 53 181 65 82 15 259 3 373 -25z"/>
</g>
</svg>
